<?xml version="1.0" encoding="utf-8"?>
<!-- Generator: Adobe Illustrator 16.0.0, SVG Export Plug-In . SVG Version: 6.00 Build 0)  -->
<!DOCTYPE svg PUBLIC "-//W3C//DTD SVG 1.1//EN" "http://www.w3.org/Graphics/SVG/1.1/DTD/svg11.dtd">
<svg version="1.1" id="Layer_1" xmlns="http://www.w3.org/2000/svg" xmlns:xlink="http://www.w3.org/1999/xlink" x="0px" y="0px"
	 width="100px" height="97.214px" viewBox="0 0 100 97.214" enable-background="new 0 0 100 97.214" xml:space="preserve">
<path fill="#010101" d="M52.084,1.579C51.796,0.641,50.932,0.001,49.951,0c-0.98-0.001-1.847,0.637-2.137,1.572l-9.991,32.28
	c-0.289,0.935-1.155,1.573-2.134,1.573H2.233c-0.969,0-1.829,0.626-2.126,1.55c-0.296,0.924,0.037,1.933,0.827,2.499l27.275,19.534
	c0.791,0.565,1.123,1.578,0.825,2.503L18.447,94.293c-0.299,0.927,0.037,1.94,0.831,2.506c0.793,0.565,1.859,0.552,2.638-0.036
	L48.62,76.666c0.793-0.597,1.888-0.6,2.683-0.003l26.782,20.072c0.776,0.582,1.841,0.596,2.632,0.034
	c0.791-0.563,1.129-1.571,0.835-2.497L71.19,61.596c-0.291-0.918,0.037-1.918,0.816-2.483l27.071-19.647
	c0.782-0.568,1.111-1.575,0.813-2.497c-0.299-0.921-1.156-1.543-2.124-1.543H64.096c-0.98,0-1.846-0.642-2.134-1.579L52.084,1.579z"
	/>
</svg>
